<svg width="252" height="111" viewBox="0 0 252 111" fill="none" xmlns="http://www.w3.org/2000/svg">
<path d="M112.778 10.684V40H106.898V10.684H112.778ZM131.481 16.396C134.253 16.396 136.493 17.278 138.201 19.042C139.909 20.778 140.763 23.214 140.763 26.35V40H134.883V27.148C134.883 25.3 134.421 23.886 133.497 22.906C132.573 21.898 131.313 21.394 129.717 21.394C128.093 21.394 126.805 21.898 125.853 22.906C124.929 23.886 124.467 25.3 124.467 27.148V40H118.587V16.732H124.467V19.63C125.251 18.622 126.245 17.838 127.449 17.278C128.681 16.69 130.025 16.396 131.481 16.396ZM159.249 16.396C162.021 16.396 164.261 17.278 165.969 19.042C167.677 20.778 168.531 23.214 168.531 26.35V40H162.651V27.148C162.651 25.3 162.189 23.886 161.265 22.906C160.341 21.898 159.081 21.394 157.485 21.394C155.861 21.394 154.573 21.898 153.621 22.906C152.697 23.886 152.235 25.3 152.235 27.148V40H146.355V16.732H152.235V19.63C153.019 18.622 154.013 17.838 155.217 17.278C156.449 16.69 157.793 16.396 159.249 16.396ZM184.455 40.378C182.215 40.378 180.199 39.888 178.407 38.908C176.615 37.9 175.201 36.486 174.165 34.666C173.157 32.846 172.653 30.746 172.653 28.366C172.653 25.986 173.171 23.886 174.207 22.066C175.271 20.246 176.713 18.846 178.533 17.866C180.353 16.858 182.383 16.354 184.623 16.354C186.863 16.354 188.893 16.858 190.713 17.866C192.533 18.846 193.961 20.246 194.997 22.066C196.061 23.886 196.593 25.986 196.593 28.366C196.593 30.746 196.047 32.846 194.955 34.666C193.891 36.486 192.435 37.9 190.587 38.908C188.767 39.888 186.723 40.378 184.455 40.378ZM184.455 35.254C185.519 35.254 186.513 35.002 187.437 34.498C188.389 33.966 189.145 33.182 189.705 32.146C190.265 31.11 190.545 29.85 190.545 28.366C190.545 26.154 189.957 24.46 188.781 23.284C187.633 22.08 186.219 21.478 184.539 21.478C182.859 21.478 181.445 22.08 180.297 23.284C179.177 24.46 178.617 26.154 178.617 28.366C178.617 30.578 179.163 32.286 180.255 33.49C181.375 34.666 182.775 35.254 184.455 35.254ZM210.608 34.582L216.488 16.732H222.746L214.136 40H206.996L198.428 16.732H204.728L210.608 34.582ZM224.536 28.282C224.536 25.93 224.998 23.844 225.922 22.024C226.874 20.204 228.148 18.804 229.744 17.824C231.368 16.844 233.174 16.354 235.162 16.354C236.898 16.354 238.41 16.704 239.698 17.404C241.014 18.104 242.064 18.986 242.848 20.05V16.732H248.77V40H242.848V36.598C242.092 37.69 241.042 38.6 239.698 39.328C238.382 40.028 236.856 40.378 235.12 40.378C233.16 40.378 231.368 39.874 229.744 38.866C228.148 37.858 226.874 36.444 225.922 34.624C224.998 32.776 224.536 30.662 224.536 28.282ZM242.848 28.366C242.848 26.938 242.568 25.72 242.008 24.712C241.448 23.676 240.692 22.892 239.74 22.36C238.788 21.8 237.766 21.52 236.674 21.52C235.582 21.52 234.574 21.786 233.65 22.318C232.726 22.85 231.97 23.634 231.382 24.67C230.822 25.678 230.542 26.882 230.542 28.282C230.542 29.682 230.822 30.914 231.382 31.978C231.97 33.014 232.726 33.812 233.65 34.372C234.602 34.932 235.61 35.212 236.674 35.212C237.766 35.212 238.788 34.946 239.74 34.414C240.692 33.854 241.448 33.07 242.008 32.062C242.568 31.026 242.848 29.794 242.848 28.366Z" fill="white"/>
<path d="M92.02 71.294C89.976 71.294 88.128 70.944 86.476 70.244C84.852 69.544 83.564 68.536 82.612 67.22C81.66 65.904 81.17 64.35 81.142 62.558H87.442C87.526 63.762 87.946 64.714 88.702 65.414C89.486 66.114 90.55 66.464 91.894 66.464C93.266 66.464 94.344 66.142 95.128 65.498C95.912 64.826 96.304 63.958 96.304 62.894C96.304 62.026 96.038 61.312 95.506 60.752C94.974 60.192 94.302 59.758 93.49 59.45C92.706 59.114 91.614 58.75 90.214 58.358C88.31 57.798 86.756 57.252 85.552 56.72C84.376 56.16 83.354 55.334 82.486 54.242C81.646 53.122 81.226 51.638 81.226 49.79C81.226 48.054 81.66 46.542 82.528 45.254C83.396 43.966 84.614 42.986 86.182 42.314C87.75 41.614 89.542 41.264 91.558 41.264C94.582 41.264 97.032 42.006 98.908 43.49C100.812 44.946 101.862 46.99 102.058 49.622H95.59C95.534 48.614 95.1 47.788 94.288 47.144C93.504 46.472 92.454 46.136 91.138 46.136C89.99 46.136 89.066 46.43 88.366 47.018C87.694 47.606 87.358 48.46 87.358 49.58C87.358 50.364 87.61 51.022 88.114 51.554C88.646 52.058 89.29 52.478 90.046 52.814C90.83 53.122 91.922 53.486 93.322 53.906C95.226 54.466 96.78 55.026 97.984 55.586C99.188 56.146 100.224 56.986 101.092 58.106C101.96 59.226 102.394 60.696 102.394 62.516C102.394 64.084 101.988 65.54 101.176 66.884C100.364 68.228 99.174 69.306 97.606 70.118C96.038 70.902 94.176 71.294 92.02 71.294ZM113.372 51.092C114.128 50.028 115.164 49.146 116.48 48.446C117.824 47.718 119.35 47.354 121.058 47.354C123.046 47.354 124.838 47.844 126.434 48.824C128.058 49.804 129.332 51.204 130.256 53.024C131.208 54.816 131.684 56.902 131.684 59.282C131.684 61.662 131.208 63.776 130.256 65.624C129.332 67.444 128.058 68.858 126.434 69.866C124.838 70.874 123.046 71.378 121.058 71.378C119.35 71.378 117.838 71.028 116.522 70.328C115.234 69.628 114.184 68.746 113.372 67.682V82.088H107.492V47.732H113.372V51.092ZM125.678 59.282C125.678 57.882 125.384 56.678 124.796 55.67C124.236 54.634 123.48 53.85 122.528 53.318C121.604 52.786 120.596 52.52 119.504 52.52C118.44 52.52 117.432 52.8 116.48 53.36C115.556 53.892 114.8 54.676 114.212 55.712C113.652 56.748 113.372 57.966 113.372 59.366C113.372 60.766 113.652 61.984 114.212 63.02C114.8 64.056 115.556 64.854 116.48 65.414C117.432 65.946 118.44 66.212 119.504 66.212C120.596 66.212 121.604 65.932 122.528 65.372C123.48 64.812 124.236 64.014 124.796 62.978C125.384 61.942 125.678 60.71 125.678 59.282ZM134.445 59.282C134.445 56.93 134.907 54.844 135.831 53.024C136.783 51.204 138.057 49.804 139.653 48.824C141.277 47.844 143.083 47.354 145.071 47.354C146.807 47.354 148.319 47.704 149.607 48.404C150.923 49.104 151.973 49.986 152.757 51.05V47.732H158.679V71H152.757V67.598C152.001 68.69 150.951 69.6 149.607 70.328C148.291 71.028 146.765 71.378 145.029 71.378C143.069 71.378 141.277 70.874 139.653 69.866C138.057 68.858 136.783 67.444 135.831 65.624C134.907 63.776 134.445 61.662 134.445 59.282ZM152.757 59.366C152.757 57.938 152.477 56.72 151.917 55.712C151.357 54.676 150.601 53.892 149.649 53.36C148.697 52.8 147.675 52.52 146.583 52.52C145.491 52.52 144.483 52.786 143.559 53.318C142.635 53.85 141.879 54.634 141.291 55.67C140.731 56.678 140.451 57.882 140.451 59.282C140.451 60.682 140.731 61.914 141.291 62.978C141.879 64.014 142.635 64.812 143.559 65.372C144.511 65.932 145.519 66.212 146.583 66.212C147.675 66.212 148.697 65.946 149.649 65.414C150.601 64.854 151.357 64.07 151.917 63.062C152.477 62.026 152.757 60.794 152.757 59.366ZM162.909 59.366C162.909 56.958 163.399 54.858 164.379 53.066C165.359 51.246 166.717 49.846 168.453 48.866C170.189 47.858 172.177 47.354 174.417 47.354C177.301 47.354 179.681 48.082 181.557 49.538C183.461 50.966 184.735 52.982 185.379 55.586H179.037C178.701 54.578 178.127 53.794 177.315 53.234C176.531 52.646 175.551 52.352 174.375 52.352C172.695 52.352 171.365 52.968 170.385 54.2C169.405 55.404 168.915 57.126 168.915 59.366C168.915 61.578 169.405 63.3 170.385 64.532C171.365 65.736 172.695 66.338 174.375 66.338C176.755 66.338 178.309 65.274 179.037 63.146H185.379C184.735 65.666 183.461 67.668 181.557 69.152C179.653 70.636 177.273 71.378 174.417 71.378C172.177 71.378 170.189 70.888 168.453 69.908C166.717 68.9 165.359 67.5 164.379 65.708C163.399 63.888 162.909 61.774 162.909 59.366ZM211.317 58.862C211.317 59.702 211.261 60.458 211.149 61.13H194.139C194.279 62.81 194.867 64.126 195.903 65.078C196.939 66.03 198.213 66.506 199.725 66.506C201.909 66.506 203.463 65.568 204.387 63.692H210.729C210.057 65.932 208.769 67.78 206.865 69.236C204.961 70.664 202.623 71.378 199.851 71.378C197.611 71.378 195.595 70.888 193.803 69.908C192.039 68.9 190.653 67.486 189.645 65.666C188.665 63.846 188.175 61.746 188.175 59.366C188.175 56.958 188.665 54.844 189.645 53.024C190.625 51.204 191.997 49.804 193.761 48.824C195.525 47.844 197.555 47.354 199.851 47.354C202.063 47.354 204.037 47.83 205.773 48.782C207.537 49.734 208.895 51.092 209.847 52.856C210.827 54.592 211.317 56.594 211.317 58.862ZM205.227 57.182C205.199 55.67 204.653 54.466 203.589 53.57C202.525 52.646 201.223 52.184 199.683 52.184C198.227 52.184 196.995 52.632 195.987 53.528C195.007 54.396 194.405 55.614 194.181 57.182H205.227Z" fill="white"/>
<path d="M155 66C155.007 66.1081 152.5 68 154.5 69.5C154.543 70.3146 160.524 69 153.5 69C155.5 70.5 153 71 153 71C163.294 79.4345 165.758 80.6723 164 89.5C163.312 92.9531 162.523 95.0022 160.271 97.7089C158.381 99.9814 157.107 101.335 154.259 102.308C139.509 107.355 104.337 97.68 75.6305 83.4999C55.1209 73.3641 37.12 61.289 24.9368 49.4807C13.6187 38.5014 10.5549 29.9443 13.4745 24.7755C14.5919 22.8218 16.5023 21.3728 19.0687 20.3852C28.4332 16.7302 46.3764 19.2894 64.0456 24.5592C55.6832 30.8022 49.8583 39.2223 47.1622 47.6424L47.1549 47.6929L47.1477 47.7361C46.3187 55.4497 57.4854 65.5423 68.7747 71.1654C68.7603 71.1221 69.3803 71.396 69.3803 71.3528C69.3659 71.3095 69.2721 70.567 69.2577 70.5382C66.6192 51.3623 81.1381 22.6705 96.3996 16.377C97.38 15.9733 98.2307 15.7282 98.346 15.6921L96.378 15.4975C95.8493 15.4494 95.3014 15.4134 94.7343 15.3894C94.0812 15.3542 93.4274 15.3302 92.7735 15.3173C84.1651 15.1464 75.6787 17.3728 68.2629 21.7477C38.7781 11.6263 17.1872 10.4368 8.15429 13.4502C4.56421 14.6565 2.16121 16.4611 0.945297 18.8641C-0.309068 21.3873 -0.316277 24.5592 0.930879 28.2791C5.04001 40.5632 22.976 57.3457 45.7059 72.2467C49.0005 89.5988 64.5575 107.391 86.8188 109.762L87.8425 109.87C87.9625 109.86 88.083 109.86 88.203 109.87L86.9558 108.919C80.0712 103.613 73.8859 94.8685 71.7665 87.2919L73.1001 87.9623L74.131 88.4669C110.068 106.237 156.419 113.536 164.46 109.712C172.5 105.888 173.731 99.7089 174 98.5C174.269 97.2911 177 90.5 172.5 83.5C166.613 74.3417 156.78 69.5 156.78 69.5L154.5 63.5" fill="white"/>
</svg>
